<?xml version="1.0" encoding="UTF-8" standalone="no"?>
<svg
   xmlns:dc="http://purl.org/dc/elements/1.1/"
   xmlns:cc="http://creativecommons.org/ns#"
   xmlns:rdf="http://www.w3.org/1999/02/22-rdf-syntax-ns#"
   xmlns:svg="http://www.w3.org/2000/svg"
   xmlns="http://www.w3.org/2000/svg"
   viewBox="0 0 1112.0533 796.54669"
   height="796.54669"
   width="1112.0533"
   xml:space="preserve"
   id="svg2"
   version="1.1"><metadata
     id="metadata8"><rdf:RDF><cc:Work
         rdf:about=""><dc:format>image/svg+xml</dc:format><dc:type
           rdf:resource="http://purl.org/dc/dcmitype/StillImage" /></cc:Work></rdf:RDF></metadata><defs
     id="defs6" /><g
     transform="matrix(1.3333333,0,0,-1.3333333,0,796.54667)"
     id="g10"><g
       transform="scale(0.1)"
       id="g12"><path
         id="path14"
         style="fill:#959595;fill-opacity:1;fill-rule:nonzero;stroke:none"
         d="m 4443.94,5141.7 301.55,573.49 c -335.8,175.1 -774.81,150.61 -1076.43,-84.74 L 4185,4649.26 4443.94,5141.7" /><path
         id="path16"
         style="fill:#959595;fill-opacity:1;fill-rule:nonzero;stroke:none"
         d="m 5075.13,2929.4 -33.16,-42.18 -499.99,-636.15 c 399.07,-1.63 798.15,1.74 1197.23,1.46 l -620.75,632.7 -43.33,44.17" /><path
         id="path18"
         style="fill:#959595;fill-opacity:1;fill-rule:nonzero;stroke:none"
         d="m 3827.42,2251.84 -410.07,521.73 -97.95,124.63 -24.53,31.2 -158.34,-161.38 -200.03,-203.89 -305.72,-311.61 c 398.88,-0.63 797.77,-3.88 1196.64,-0.68" /><path
         id="path20"
         style="fill:#959595;fill-opacity:1;fill-rule:nonzero;stroke:none"
         d="m 1740.52,3380.91 v 386.12 h 447.46 v -447.46 h -61.33 -324.79 -61.34 z m 393.57,984.84 v 386.13 h 447.46 v -447.46 h -61.34 -324.78 -61.34 z M 1592.88,2837.93 h 61.34 v -447.46 h -165.11 c 138.46,-87.76 309.68,-140.85 514,-140.52 88.65,1.09 177.3,1.7 265.95,2.12 l 113.75,389.79 44.25,151.67 64.01,219.32 80.78,276.82 12.88,44.15 h 46 130.19 v 309.02 17.3 61.33 h 61.34 46.05 v 309.02 17.3 61.33 h 61.34 161.36 17.3 28.26 17.3 116.83 61.34 v -61.33 -17.3 -309.02 h 293.24 v 293.25 h -101.06 -61.33 v 61.33 17.3 309.02 h -101.06 -61.34 v 61.33 12.06 309.02 h -210.56 -81.79 l 22.91,78.52 23.82,81.62 63.9,218.96 36.61,125.48 c -76.17,29.05 -154.16,46.33 -232.37,53.02 v -183.15 -61.34 h -61.33 -324.79 -61.33 v 61.34 110.07 c -96.52,-40.42 -187.01,-95.61 -267.42,-162.8 v -168.44 -61.33 h -61.34 -142.12 c -130.52,-203.58 -184.41,-455.95 -108.54,-721.72 -21.55,-2.34 -42.43,-5.55 -63.08,-9.06 v -136.42 -61.33 h -61.33 -324.79 -56.97 c -63.55,-53.22 -117.64,-114.29 -162.41,-181.17 h 40.53 61.34 v -61.33 -324.79 -61.34 h -61.34 -198.1 c -22.22,-220.19 24.12,-448.3 136.77,-637.18 v 94.2 61.34 h 61.33 324.79" /><path
         id="path22"
         style="fill:#959595;fill-opacity:1;fill-rule:nonzero;stroke:none"
         d="m 6209.86,2249.94 c 1157.6,-5.57 1288.3,1723.94 153.16,1898.79 6.98,571.58 -530.61,1027.28 -1090.49,942.18 L 6101.3,2250.86 c 36.18,-0.28 72.37,-0.47 108.56,-0.92" /><path
         id="path24"
         style="fill:#959595;fill-opacity:1;fill-rule:nonzero;stroke:none"
         d="M 1430.49,4996.84 H 1105.7 v -324.79 h 324.79 v 324.79" /><path
         id="path26"
         style="fill:#959595;fill-opacity:1;fill-rule:nonzero;stroke:none"
         d="M 727.297,4334.32 H 402.508 v -324.79 h 324.789 v 324.79" /><path
         id="path28"
         style="fill:#959595;fill-opacity:1;fill-rule:nonzero;stroke:none"
         d="m 564.902,2868.19 h 324.789 v 324.79 H 564.902 v -324.79" /><path
         id="path30"
         style="fill:#959595;fill-opacity:1;fill-rule:nonzero;stroke:none"
         d="M 364.82,5159.23 H 40.0313 V 4834.44 H 364.82 v 324.79" /><path
         id="path32"
         style="fill:#959595;fill-opacity:1;fill-rule:nonzero;stroke:none"
         d="m 5070.03,3022.18 92.21,-93.99 964.33,-982.89 -994.47,3407.9 -34.63,118.65 -146.55,502.22 -90.87,-172.81 -361.82,-688.1 -313.23,-595.69 -765.92,1456.6 -197.14,-675.6 -44.3,-151.78 -63.89,-218.95 -23.82,-81.63 h 226.33 45.57 v -45.56 -324.79 -12.06 h 116.83 45.56 v -45.56 -324.79 -17.3 h 116.83 45.57 v -45.56 -324.79 -45.56 h -45.57 -324.79 -45.56 v 45.56 324.79 17.3 h -116.83 -17.3 -28.26 -17.3 -161.36 v -17.3 -324.79 -45.56 h -45.56 -61.83 v -17.3 -324.79 -45.57 h -45.56 -145.97 l -80.78,-276.81 -64.01,-219.33 -44.25,-151.66 -197.38,-676.36 -0.88,-3.02 2.58,2.62 646.71,659.17 200.03,203.88 207.22,211.21 67.66,-86.08 97.95,-124.63 435.82,-554.51 77.04,-98.02 206.56,-262.81 808.75,1028.99 76.28,97.06" /><path
         id="path34"
         style="fill:#959595;fill-opacity:1;fill-rule:nonzero;stroke:none"
         d="M 1268.09,3705.7 H 943.309 v -324.79 h 324.781 v 324.79" /><path
         id="path36"
         style="fill:#959595;fill-opacity:1;fill-rule:nonzero;stroke:none"
         d="m 2520.21,4690.54 h -324.78 v -324.79 h 324.78 v 324.79" /><path
         id="path38"
         style="fill:#959595;fill-opacity:1;fill-rule:nonzero;stroke:none"
         d="m 2126.65,3705.7 h -324.79 v -324.79 h 324.79 v 324.79" /><path
         id="path40"
         style="fill:#959595;fill-opacity:1;fill-rule:nonzero;stroke:none"
         d="M 1592.88,2776.59 H 1268.09 V 2451.8 h 324.79 v 324.79" /><path
         id="path42"
         style="fill:#959595;fill-opacity:1;fill-rule:nonzero;stroke:none"
         d="m 1771.73,4334.32 h -324.79 v -324.79 h 324.79 v 324.79" /><path
         id="path44"
         style="fill:#959595;fill-opacity:1;fill-rule:nonzero;stroke:none"
         d="m 2146.8,5262.85 h -324.79 v -324.79 h 324.79 v 324.79" /><path
         id="path46"
         style="fill:#959595;fill-opacity:1;fill-rule:nonzero;stroke:none"
         d="m 2861.68,5484.02 h -324.79 v -324.79 h 324.79 v 324.79" /><path
         id="path48"
         style="fill:#959595;fill-opacity:1;fill-rule:nonzero;stroke:none"
         d="m 522.273,1267.72 c -2.918,-65.56 -4.367,-102.54 -4.367,-110.91 0,-8.38 0,-16.93 0,-25.67 V 753.09 h 115.817 v 623.89 H 459.996 L 345.27,1010.95 316.859,910.43 l -20.754,84.14 -9.835,33.86 -111.45,348.55 H 0 V 753.09 h 115.82 v 378.05 c 0,22.57 -1.828,68.1 -5.465,136.58 L 157.34,1101.64 269.879,753.09 h 92.871 l 112.543,348.55 c 10.191,31.31 25.844,86.68 46.98,166.08" /><path
         id="path50"
         style="fill:#959595;fill-opacity:1;fill-rule:nonzero;stroke:none"
         d="m 1012.86,950.859 c 0,-21.14 -4.56,-40.98 -13.661,-59.55 -9.121,-18.579 -21.683,-33.329 -37.699,-44.25 -16.031,-10.93 -33.867,-16.391 -53.535,-16.391 -17.485,0 -31.52,5.641 -42.067,16.934 -10.57,11.289 -15.843,28.226 -15.843,50.808 0,17.481 3.09,31.5 9.285,42.07 6.183,10.551 15.301,18.379 27.316,23.489 12.02,5.09 32.59,8.359 61.735,9.84 l 64.469,1.089 z M 1146.15,839.41 c -5.83,10.199 -8.74,28.77 -8.74,55.719 v 173.731 c 0,55.35 -16.38,97.96 -49.16,127.84 -32.78,29.86 -79.41,44.79 -139.859,44.79 -60.469,0 -108,-12.01 -142.59,-36.05 -34.606,-24.04 -55.906,-59.38 -63.914,-105.99 l 130.015,-6.55 c 2.907,24.04 9.653,41.33 20.215,51.9 10.555,10.55 27.488,15.84 50.809,15.84 24.754,0 42.609,-7.65 53.539,-22.95 10.925,-15.29 16.395,-38.61 16.395,-69.92 v -24.04 l -103.801,-2.18 c -61.192,-0.74 -108.004,-14.03 -140.407,-39.88 -32.418,-25.869 -48.625,-63.568 -48.625,-113.092 0,-45.887 12.926,-81.406 38.789,-106.527 25.852,-25.133 62.098,-37.699 108.719,-37.699 69.93,0 122.735,31.308 158.435,93.968 h 2.18 c 2.9,-29.879 11.83,-52.441 26.77,-67.75 14.92,-15.289 38.05,-22.941 69.38,-22.941 8.74,0 16.39,0.371 22.95,1.09 6.55,0.742 12.92,1.472 19.12,2.179 6.18,0.743 12.19,2.032 18.02,3.832 5.83,1.809 12.38,3.45 19.67,4.911 v 66.66 c -8.74,-1.473 -17.85,-2.18 -27.31,-2.18 -14.58,0 -24.77,5.078 -30.6,15.289" /><path
         id="path52"
         style="fill:#959595;fill-opacity:1;fill-rule:nonzero;stroke:none"
         d="m 1640.02,824.648 c 18.93,25.852 30.59,55.192 34.96,87.961 l -124.56,5.469 c -3.65,-29.148 -13.49,-51.187 -29.5,-66.098 -16.03,-14.941 -35.7,-22.398 -59,-22.398 -65.56,-0.742 -98.34,54.25 -98.34,164.988 0,107.07 32.05,160.61 96.16,160.61 26.22,0 46.24,-7.11 60.09,-21.31 13.83,-14.21 22.57,-33.7 26.22,-58.45 l 125.65,5.46 c -9.47,50.26 -32.77,89.6 -69.92,118 -37.16,28.41 -83.78,42.61 -139.86,42.61 -72.85,0 -129.31,-22.03 -169.36,-66.1 -40.06,-44.08 -60.09,-105.81 -60.09,-185.199 0,-77.211 19.83,-137.5 59.55,-180.832 39.69,-43.351 95.96,-65.007 168.81,-65.007 38.6,0 73.37,6.937 104.34,20.757 30.95,13.832 55.9,33.692 74.85,59.539" /><path
         id="path54"
         style="fill:#959595;fill-opacity:1;fill-rule:nonzero;stroke:none"
         d="m 2110.93,1003.85 c -17.48,11.28 -40.97,20.93 -70.47,28.95 -29.5,8.01 -62.82,16.01 -99.98,24.04 -26.95,5.09 -46.07,11.64 -57.35,19.67 -11.31,8.01 -16.94,18.94 -16.94,32.77 0,18.21 7.27,30.96 21.85,38.25 14.56,7.27 36.77,10.92 66.65,10.92 30.59,0 52.81,-4.74 66.65,-14.2 13.83,-9.48 22.57,-24.04 26.22,-43.71 l 109.27,12.02 c -8.03,41.53 -29.51,73.38 -64.47,95.61 -34.96,22.21 -80.86,33.32 -137.67,33.32 -64.84,0 -114.72,-12.74 -149.69,-38.24 -34.97,-25.5 -52.45,-61.18 -52.45,-107.07 0,-27.7 6.37,-51 19.12,-69.93 12.74,-18.95 31.5,-34.422 56.27,-46.441 24.76,-12.02 72.12,-24.957 142.05,-38.789 30.59,-6.551 52.26,-14.2 65.01,-22.942 12.73,-8.738 19.12,-20.758 19.12,-36.058 0,-18.95 -8.03,-32.961 -24.04,-42.059 -16.03,-9.121 -41.52,-13.66 -76.48,-13.66 -37.15,0 -63.38,4.73 -78.67,14.199 -15.3,9.461 -26.22,25.488 -32.78,48.078 L 1732.89,872.18 c 11.64,-43.7 34.96,-75.93 69.93,-96.688 34.96,-20.762 85.22,-31.14 150.78,-31.14 67.01,0 119.64,13.117 157.88,39.339 38.24,26.219 57.36,62.629 57.36,109.258 0,27.672 -5.29,50.262 -15.84,67.742 -10.57,17.481 -24.58,31.86 -42.07,43.159" /><path
         id="path56"
         style="fill:#959595;fill-opacity:1;fill-rule:nonzero;stroke:none"
         d="m 2749.03,1376.98 h -534.29 v -100.52 h 202.13 V 753.09 h 130.02 v 523.37 h 202.14 v 100.52" /><path
         id="path58"
         style="fill:#959595;fill-opacity:1;fill-rule:nonzero;stroke:none"
         d="m 2824.86,1047.01 c 0.72,36.41 8.91,64.82 24.59,85.22 15.65,20.38 38.04,30.6 67.19,30.6 27.67,0 49.71,-9.67 66.11,-28.96 16.38,-19.3 25.67,-48.26 27.86,-86.86 z m 93.96,194.48 c -72.11,0 -127.83,-21.3 -167.17,-63.92 -39.33,-42.6 -59,-103.62 -59,-183 0,-81.59 19.3,-143.679 57.91,-186.3 38.6,-42.61 93.96,-63.918 166.08,-63.918 104.15,0 173.35,43.328 207.6,130.019 l -118.01,9.84 c -11.66,-37.891 -39.33,-56.82 -83.03,-56.82 -32.06,0 -56.65,11.839 -73.75,35.507 -17.13,23.661 -25.69,58.821 -25.69,105.442 h 307.03 v 4.371 c 0,87.409 -18.21,154.059 -54.63,199.949 -36.43,45.89 -88.87,68.83 -157.34,68.83" /><path
         id="path60"
         style="fill:#959595;fill-opacity:1;fill-rule:nonzero;stroke:none"
         d="m 3603.89,824.648 c 18.94,25.852 30.6,55.192 34.97,87.961 l -124.56,5.469 c -3.65,-29.148 -13.49,-51.187 -29.5,-66.098 -16.04,-14.941 -35.71,-22.398 -59.01,-22.398 -65.55,-0.742 -98.34,54.25 -98.34,164.988 0,107.07 32.05,160.61 96.16,160.61 26.23,0 46.25,-7.11 60.09,-21.31 13.83,-14.21 22.57,-33.7 26.22,-58.45 l 125.66,5.46 c -9.47,50.26 -32.78,89.6 -69.93,118 -37.15,28.41 -83.77,42.61 -139.86,42.61 -72.84,0 -129.3,-22.03 -169.35,-66.1 -40.07,-44.08 -60.1,-105.81 -60.1,-185.199 0,-77.211 19.84,-137.5 59.55,-180.832 39.7,-43.351 95.97,-65.007 168.81,-65.007 38.6,0 73.38,6.937 104.35,20.757 30.95,13.832 55.89,33.692 74.84,59.539" /><path
         id="path62"
         style="fill:#959595;fill-opacity:1;fill-rule:nonzero;stroke:none"
         d="m 4004.89,1241.49 c -34.96,0 -65.2,-8.38 -90.68,-25.13 -25.51,-16.76 -46.63,-43.35 -63.38,-79.75 h -1.09 c 2.18,30.58 3.28,61.89 3.28,93.96 v 179.19 H 3728.45 V 753.09 h 124.57 v 256.77 c 0,40.05 9.28,73.02 27.86,98.88 18.57,25.85 42.78,38.79 72.66,38.79 56.82,0.72 85.23,-41.17 85.23,-125.65 V 753.09 h 124.55 v 303.75 c 0,60.45 -13.65,106.34 -40.97,137.67 -27.31,31.32 -66.48,46.98 -117.46,46.98" /><path
         id="path64"
         style="fill:#959595;fill-opacity:1;fill-rule:nonzero;stroke:none"
         d="m 4734.75,966.16 c -31.31,-79.41 -86.31,-119.101 -164.98,-119.101 -59,0 -104.34,18.929 -136.03,56.812 -31.68,37.867 -47.53,92.5 -47.53,163.899 0,70.64 15.3,124.37 45.89,161.16 30.59,36.77 75.39,55.18 134.39,55.18 38.61,0 72.29,-9.29 101.08,-27.86 28.76,-18.58 47.88,-43.54 57.35,-74.85 l 114.73,31.68 c -18.22,56.82 -50.26,99.98 -96.15,129.48 -45.9,29.51 -105.63,44.25 -179.2,44.25 -100.51,0 -177.18,-27.5 -229.99,-82.49 -52.82,-55.01 -79.21,-133.84 -79.21,-236.55 0,-101.989 27.31,-181.379 81.94,-238.188 54.64,-56.82 132.21,-85.23 232.73,-85.23 66.27,0 123.09,14.558 170.45,43.699 47.35,29.129 83.4,73.929 108.17,134.398 l -113.64,43.711" /><path
         id="path66"
         style="fill:#959595;fill-opacity:1;fill-rule:nonzero;stroke:none"
         d="m 5145.57,829.582 c -34.24,0 -60.63,14.008 -79.21,42.059 -18.58,28.031 -27.87,68.648 -27.87,121.828 0,107.801 37.87,161.711 113.64,161.711 34.97,0 61.73,-12.75 80.31,-38.24 18.57,-25.51 27.86,-66.65 27.86,-123.471 0,-109.258 -38.24,-163.887 -114.73,-163.887 z m 245.84,163.887 c 0,80.121 -20.76,141.501 -62.27,184.101 -41.53,42.62 -101.26,63.92 -179.19,63.92 -76.49,0 -136.04,-22.03 -178.64,-66.1 -42.62,-44.08 -63.93,-104.72 -63.93,-181.921 0,-77.957 21.31,-138.949 63.93,-183.008 42.6,-44.09 101.42,-66.109 176.45,-66.109 75.75,0 135.29,22.019 178.64,66.109 43.33,44.059 65.01,105.051 65.01,183.008" /><path
         id="path68"
         style="fill:#959595;fill-opacity:1;fill-rule:nonzero;stroke:none"
         d="m 6175.93,753.09 v 303.75 c 0,59.72 -12.4,105.44 -37.15,137.12 -24.78,31.69 -60.47,47.53 -107.08,47.53 -34.96,0 -63.92,-8.19 -86.87,-24.58 -22.94,-16.39 -42.44,-43.15 -58.46,-80.3 h -2.17 c -15.31,69.92 -59.74,104.88 -133.3,104.88 -32.06,0 -59.55,-8.38 -82.5,-25.13 -22.94,-16.76 -42.06,-43.35 -57.37,-79.75 h -1.08 c 0,9.45 -0.93,26.38 -2.74,50.8 -1.82,24.39 -3.1,39.5 -3.82,45.34 h -118 c 0.71,-13.11 1.44,-28.05 2.18,-44.79 0.72,-16.77 1.09,-37.89 1.09,-63.37 v -371.5 h 124.56 v 256.77 c 0,40.78 8.01,74.11 24.04,99.97 16.01,25.85 36.42,38.79 61.18,38.79 48.08,0 72.12,-42.26 72.12,-126.74 V 753.09 h 123.47 v 262.23 c 1.45,41.52 10,74.11 25.67,97.79 15.66,23.66 35.51,35.51 59.56,35.51 48.06,0 72.1,-42.26 72.1,-126.74 V 753.09 h 124.57" /><path
         id="path70"
         style="fill:#959595;fill-opacity:1;fill-rule:nonzero;stroke:none"
         d="m 6518.99,829.582 c -32.78,0 -57.91,14.008 -75.39,42.059 -17.49,28.031 -26.23,67.918 -26.23,119.648 0,51.701 8.92,92.131 26.78,121.271 17.83,29.13 43.15,43.71 75.94,43.71 65.55,0 98.33,-53.91 98.33,-161.7 0,-110.738 -33.16,-165.73 -99.43,-164.988 z m 181.38,-20.223 c 32.04,43.332 48.07,105.063 48.07,185.211 0,79.38 -15.3,140.56 -45.89,183.55 -30.59,42.97 -73.94,64.46 -130.02,64.46 -73.59,0 -124.56,-29.5 -152.97,-88.49 h -2.19 c 0,15.29 -0.55,30.95 -1.63,46.98 -1.09,16.02 -2.37,26.58 -3.83,31.68 h -120.18 c 2.17,-28.41 3.27,-65.19 3.27,-110.35 V 565.16 h 124.56 v 183.559 c -0.73,45.152 -1.83,72.121 -3.27,80.863 h 3.27 c 13.11,-27.703 32.23,-48.812 57.36,-63.371 25.13,-14.57 54.44,-21.859 87.96,-21.859 58.26,0 103.42,21.656 135.49,65.007" /><path
         id="path72"
         style="fill:#959595;fill-opacity:1;fill-rule:nonzero;stroke:none"
         d="m 7103.54,950.859 c 0,-21.14 -4.55,-40.98 -13.65,-59.55 -9.12,-18.579 -21.68,-33.329 -37.7,-44.25 -16.03,-10.93 -33.87,-16.391 -53.54,-16.391 -17.48,0 -31.51,5.641 -42.06,16.934 -10.57,11.289 -15.84,28.226 -15.84,50.808 0,17.481 3.09,31.5 9.29,42.07 6.17,10.551 15.29,18.379 27.31,23.489 12.01,5.09 32.59,8.359 61.73,9.84 l 64.46,1.089 z m 133.3,-111.449 c -5.84,10.199 -8.74,28.77 -8.74,55.719 v 173.731 c 0,55.35 -16.38,97.96 -49.17,127.84 -32.77,29.86 -79.4,44.79 -139.85,44.79 -60.47,0 -108,-12.01 -142.59,-36.05 -34.6,-24.04 -55.91,-59.38 -63.91,-105.99 l 130.02,-6.55 c 2.9,24.04 9.64,41.33 20.21,51.9 10.55,10.55 27.49,15.84 50.81,15.84 24.76,0 42.61,-7.65 53.54,-22.95 10.92,-15.29 16.38,-38.61 16.38,-69.92 v -24.04 l -103.8,-2.18 c -61.18,-0.74 -107.99,-14.03 -140.4,-39.88 -32.42,-25.869 -48.62,-63.568 -48.62,-113.092 0,-45.887 12.93,-81.406 38.79,-106.527 25.85,-25.133 62.09,-37.699 108.72,-37.699 69.92,0 122.72,31.308 158.43,93.968 h 2.19 c 2.9,-29.879 11.82,-52.441 26.76,-67.75 14.92,-15.289 38.06,-22.941 69.39,-22.941 8.74,0 16.38,0.371 22.94,1.09 6.55,0.742 12.93,1.472 19.12,2.179 6.18,0.743 12.19,2.032 18.03,3.832 5.82,1.809 12.38,3.45 19.66,4.911 v 66.66 c -8.74,-1.473 -17.85,-2.18 -27.31,-2.18 -14.58,0 -24.78,5.078 -30.6,15.289" /><path
         id="path74"
         style="fill:#959595;fill-opacity:1;fill-rule:nonzero;stroke:none"
         d="m 7786.42,753.09 v 303.75 c 0,60.45 -13.65,106.34 -40.96,137.67 -27.32,31.32 -66.49,46.98 -117.46,46.98 -34.97,0 -65.2,-8.38 -90.69,-25.13 -25.51,-16.76 -46.63,-43.35 -63.38,-79.75 h -1.08 c 0,9.45 -0.93,26.38 -2.74,50.8 -1.82,24.39 -3.1,39.5 -3.82,45.34 h -118 c 0.71,-13.11 1.44,-28.05 2.18,-44.79 0.72,-16.77 1.09,-37.89 1.09,-63.37 v -371.5 h 124.56 v 256.77 c 0,40.78 9.29,74.11 27.86,99.97 18.58,25.85 42.79,38.79 72.67,38.79 56.81,0 85.22,-42.26 85.22,-126.74 V 753.09 h 124.55" /><path
         id="path76"
         style="fill:#959595;fill-opacity:1;fill-rule:nonzero;stroke:none"
         d="m 8210.37,1232.75 -71.02,-227.27 -28.41,-103.789 -10.92,-41.523 c -18.23,66.273 -33.16,115.441 -44.81,147.502 l -75.39,225.08 h -132.21 l 190.12,-475.281 c -11.66,-30.598 -22.04,-52.449 -31.13,-65.571 -9.12,-13.097 -19.67,-22.386 -31.69,-27.859 -12.02,-5.461 -26.77,-8.187 -44.25,-8.187 -13.11,0 -27.32,1.089 -42.62,3.277 v -88.508 c 22.57,-3.633 48.79,-5.461 78.68,-5.461 42.97,0 78.11,11.852 105.44,35.508 27.31,23.684 53.7,66.102 79.2,127.301 l 189.03,504.781 h -130.02" /><path
         id="path78"
         style="fill:#959595;fill-opacity:1;fill-rule:nonzero;stroke:none"
         d="m 578.832,105.832 -11.273,-39.9023 -8.243,33.3906 -3.902,13.4417 -44.242,138.367 H 441.77 V 3.46875 h 45.976 V 153.531 c 0,8.969 -0.723,27.039 -2.168,54.219 L 504.23,141.82 548.906,3.46875 h 36.867 L 630.449,141.82 c 4.047,12.442 10.258,34.418 18.653,65.93 -1.164,-26.02 -1.739,-40.699 -1.739,-44.02 0,-3.332 0,-6.718 0,-10.199 V 3.46875 H 693.34 V 251.129 H 624.375 L 578.832,105.832" /><path
         id="path80"
         style="fill:#959595;fill-opacity:1;fill-rule:nonzero;stroke:none"
         d="M 1011.72,63.5313 C 998.992,48.3594 981.066,40.7695 957.938,40.7695 c -22.27,0 -39.903,7.8008 -52.915,23.4219 -13.011,15.6094 -19.515,37.0076 -19.515,64.1876 0,26.891 6.355,47.93 19.082,63.109 12.719,15.184 30.644,22.774 53.785,22.774 22.836,0 40.617,-7.66 53.345,-22.992 12.72,-15.321 19.08,-36.29 19.08,-62.891 0,-28.051 -6.36,-49.6602 -19.08,-64.8477 z M 958.375,255.031 c -39.328,0 -69.984,-11.199 -91.953,-33.621 C 844.441,199 833.457,168 833.457,128.379 c 0,-39.9102 10.984,-71.2774 32.965,-94.1173 C 888.391,11.4102 918.898,0 957.938,0 c 25.441,0 47.632,5.19922 66.582,15.6094 18.93,10.4101 33.54,25.3711 43.8,44.9023 10.26,19.5078 15.4,42.1293 15.4,67.8673 0,39.32 -11.06,70.269 -33.18,92.82 -22.12,22.563 -52.845,33.832 -92.165,33.832" /><path
         id="path82"
         style="fill:#959595;fill-opacity:1;fill-rule:nonzero;stroke:none"
         d="M 1372.83,66.5703 C 1359.67,51.1016 1341.96,43.3711 1319.7,43.3711 h -43.81 V 211.23 h 36.87 c 25.73,0 45.47,-7.019 59.21,-21.05 13.73,-14.02 20.6,-34.328 20.6,-60.93 0,-26.32 -6.58,-47.2109 -19.74,-62.6797 z m -59.2,184.5587 h -89.35 V 3.46875 h 100.19 c 23.42,0 44.31,5.05078 62.68,15.17965 18.36,10.1211 32.59,24.7227 42.72,43.8008 10.12,19.0899 15.18,41.3518 15.18,66.8008 0,39.32 -11.5,69.461 -34.48,90.441 -22.99,20.95 -55.3,31.438 -96.94,31.438" /><path
         id="path84"
         style="fill:#959595;fill-opacity:1;fill-rule:nonzero;stroke:none"
         d="m 1637.22,108.871 h 132.29 v 39.899 h -132.29 v 62.46 h 143.13 v 39.899 H 1585.6 V 3.46875 h 201.69 V 43.3711 h -150.07 v 65.4999" /><path
         id="path86"
         style="fill:#959595;fill-opacity:1;fill-rule:nonzero;stroke:none"
         d="m 2046.68,137.922 h -68.09 v 72.867 h 66.36 c 30.64,0 45.98,-11.859 45.98,-35.57 0,-11.848 -3.77,-21.028 -11.28,-27.539 -7.52,-6.5 -18.51,-9.758 -32.97,-9.758 z m 81.55,-5.422 c 9.83,12.582 14.74,27.551 14.74,44.891 0,23.711 -8.02,41.918 -24.07,54.648 -16.04,12.719 -38.82,19.09 -68.31,19.09 H 1926.97 V 3.46875 h 51.62 V 97.5898 h 60.72 L 2097,3.46875 h 58.12 l -66.8,104.09025 c 16.77,4.05 30.07,12.363 39.91,24.941" /><path
         id="path88"
         style="fill:#959595;fill-opacity:1;fill-rule:nonzero;stroke:none"
         d="m 2453.55,107.129 c 0.29,-14.4688 1.44,-30.5079 3.47,-48.1485 L 2347.28,251.129 h -58.99 V 3.46875 h 45.98 V 149.641 c -0.29,11.269 -1.45,26.16 -3.47,44.66 l 108,-190.83225 h 60.73 V 251.129 h -45.98 v -144" /><path
         id="path90"
         style="fill:#959595;fill-opacity:1;fill-rule:nonzero;stroke:none"
         d="m 2826.17,211.23 h 80.24 V 3.46875 h 51.62 V 211.23 h 80.24 v 39.899 h -212.1 V 211.23" /><path
         id="path92"
         style="fill:#959595;fill-opacity:1;fill-rule:nonzero;stroke:none"
         d="m 3219.16,108.871 h 132.29 v 39.899 h -132.29 v 62.46 h 143.13 v 39.899 H 3167.54 V 3.46875 h 201.69 V 43.3711 h -150.07 v 65.4999" /><path
         id="path94"
         style="fill:#959595;fill-opacity:1;fill-rule:nonzero;stroke:none"
         d="m 3624.29,40.7695 c -23.42,0 -41.42,7.5118 -53.99,22.5508 -12.58,15.0313 -18.87,36.7187 -18.87,65.0587 0,28.039 6.07,49.371 18.21,63.973 12.15,14.597 29.93,21.91 53.35,21.91 15.32,0 28.7,-3.692 40.13,-11.063 11.41,-7.367 19,-17.277 22.76,-29.719 l 45.55,12.579 c -7.24,22.562 -19.95,39.691 -38.17,51.41 -18.22,11.711 -41.93,17.562 -71.14,17.562 -39.9,0 -70.33,-10.922 -91.3,-32.75 -20.96,-21.832 -31.44,-53.133 -31.44,-93.902 0,-40.4806 10.84,-71.9884 32.53,-94.547 C 3553.6,11.2695 3584.39,0 3624.29,0 c 26.31,0 48.87,5.78125 67.67,17.3398 18.8,11.5586 33.1,29.3516 42.94,53.3516 l -45.11,17.3594 c -12.43,-31.5313 -34.27,-47.2813 -65.5,-47.2813" /><path
         id="path96"
         style="fill:#959595;fill-opacity:1;fill-rule:nonzero;stroke:none"
         d="m 4029.87,152.668 h -108 v 98.461 h -51.62 V 3.46875 h 51.62 V 109.73 h 108 V 3.46875 h 51.61 V 251.129 h -51.61 v -98.461" /><path
         id="path98"
         style="fill:#959595;fill-opacity:1;fill-rule:nonzero;stroke:none"
         d="m 4565.57,105.832 -11.28,-39.9023 -8.23,33.3906 -3.91,13.4417 -44.24,138.367 h -69.4 V 3.46875 h 45.98 V 153.531 c 0,8.969 -0.73,27.039 -2.17,54.219 l 18.65,-65.93 44.68,-138.35125 h 36.86 L 4617.19,141.82 c 4.04,12.442 10.26,34.418 18.64,65.93 -1.15,-26.02 -1.72,-40.699 -1.72,-44.02 0,-3.332 0,-6.718 0,-10.199 V 3.46875 h 45.97 V 251.129 h -68.96 l -45.55,-145.297" /><path
         id="path100"
         style="fill:#959595;fill-opacity:1;fill-rule:nonzero;stroke:none"
         d="m 4899.99,105.832 c 18.51,53.777 28.56,83.34 30.15,88.699 1.59,5.34 2.96,10.188 4.12,14.52 l 0.87,3.91 3.91,-12.141 7.37,-23.859 24.72,-71.129 z m 4.78,145.297 -90.22,-247.66025 h 51.62 l 22.11,63.33205 h 94.57 l 21.68,-63.33205 h 51.62 L 4965.92,251.129 h -61.15" /><path
         id="path102"
         style="fill:#959595;fill-opacity:1;fill-rule:nonzero;stroke:none"
         d="m 5339.61,66.5703 c -13.16,-15.4687 -30.87,-23.1992 -53.13,-23.1992 h -43.8 V 211.23 h 36.86 c 25.74,0 45.47,-7.019 59.2,-21.05 13.73,-14.02 20.61,-34.328 20.61,-60.93 0,-26.32 -6.58,-47.2109 -19.74,-62.6797 z m -59.2,184.5587 h -89.35 V 3.46875 h 100.19 c 23.42,0 44.31,5.05078 62.68,15.17965 18.36,10.1211 32.6,24.7227 42.72,43.8008 10.12,19.0899 15.18,41.3518 15.18,66.8008 0,39.32 -11.49,69.461 -34.48,90.441 -22.99,20.95 -55.31,31.438 -96.94,31.438" /><path
         id="path104"
         style="fill:#959595;fill-opacity:1;fill-rule:nonzero;stroke:none"
         d="m 5604.01,108.871 h 132.28 v 39.899 h -132.28 v 62.46 h 143.12 v 39.899 H 5552.39 V 3.46875 h 201.69 V 43.3711 h -150.07 v 65.4999" /><path
         id="path106"
         style="fill:#959595;fill-opacity:1;fill-rule:nonzero;stroke:none"
         d="m 6273.95,122.531 c -5.93,5.629 -14.02,10.617 -24.29,14.957 -10.26,4.332 -27.25,8.961 -50.96,13.883 -20.24,4.328 -33.62,7.938 -40.12,10.848 -6.51,2.883 -11.43,6.422 -14.75,10.621 -3.33,4.191 -4.99,9.461 -4.99,15.832 0,19.66 15.76,29.488 47.28,29.488 14.74,0 26.02,-2.668 33.83,-8.019 7.81,-5.36 13.01,-13.371 15.62,-24.082 l 50.31,6.523 c -4.33,22.246 -14.25,38.227 -29.71,47.93 -15.47,9.668 -38.54,14.519 -69.18,14.519 -32.09,0 -56.54,-6 -73.3,-18 -16.77,-12 -25.16,-29.133 -25.16,-51.402 0,-8.957 1.08,-16.84 3.25,-23.641 2.17,-6.797 5.35,-12.648 9.54,-17.558 4.19,-4.918 9.18,-9.192 14.97,-12.801 5.78,-3.609 12.36,-6.719 19.74,-9.32 7.37,-2.598 20.3,-6.071 38.82,-10.411 21.38,-4.339 35.85,-8.019 43.37,-11.058 7.52,-3.0392 13.37,-6.8791 17.56,-11.5002 4.19,-4.621 6.29,-10.4101 6.29,-17.3515 0,-22.2695 -18.07,-33.3867 -54.21,-33.3867 -17.64,0 -31.38,3.0273 -41.21,9.0976 -9.83,6.0821 -16.48,15.6211 -19.95,28.6406 l -49.88,-8.25 c 5.21,-22.8515 16.77,-39.8984 34.7,-51.1796 C 6129.45,5.62891 6154.31,0 6186.12,0 c 34.99,0 61.44,6.41797 79.37,19.3008 17.93,12.8594 26.9,31.4375 26.9,55.7305 0,10.4101 -1.6,19.5195 -4.78,27.3207 -3.18,7.808 -7.73,14.527 -13.66,20.179" /><path
         id="path108"
         style="fill:#959595;fill-opacity:1;fill-rule:nonzero;stroke:none"
         d="m 6432.06,3.46875 h 51.63 V 251.129 h -51.63 V 3.46875" /><path
         id="path110"
         style="fill:#959595;fill-opacity:1;fill-rule:nonzero;stroke:none"
         d="m 6770.4,105.832 -11.28,-39.9023 -8.23,33.3906 -3.9,13.4417 -44.24,138.367 h -69.41 V 3.46875 h 45.98 V 153.531 c 0,8.969 -0.72,27.039 -2.17,54.219 l 18.65,-65.93 44.68,-138.35125 h 36.87 L 6822.03,141.82 c 4.04,12.442 10.25,34.418 18.64,65.93 -1.15,-26.02 -1.73,-40.699 -1.73,-44.02 0,-3.332 0,-6.718 0,-10.199 V 3.46875 h 45.98 V 251.129 h -68.97 L 6770.4,105.832" /><path
         id="path112"
         style="fill:#959595;fill-opacity:1;fill-rule:nonzero;stroke:none"
         d="m 7174.23,141.18 c -7.81,-7.09 -18.8,-10.629 -32.97,-10.629 h -55.07 v 80.238 h 53.77 c 30.65,0 45.98,-13.008 45.98,-39.027 0,-13.301 -3.91,-23.5 -11.71,-30.582 z m 39.9,89.351 c -15.9,13.731 -38.75,20.598 -68.53,20.598 H 7034.56 V 3.46875 h 51.63 V 90.6406 h 61.58 c 18.5,0 34.55,3.3985 48.14,10.1994 13.6,6.789 24.01,16.48 31.23,29.058 7.23,12.582 10.85,26.821 10.85,42.731 0,24.859 -7.96,44.16 -23.86,57.902" /><path
         id="path114"
         style="fill:#959595;fill-opacity:1;fill-rule:nonzero;stroke:none"
         d="m 7427.56,251.129 h -51.62 V 3.46875 h 184.34 V 43.3711 H 7427.56 V 251.129" /><path
         id="path116"
         style="fill:#959595;fill-opacity:1;fill-rule:nonzero;stroke:none"
         d="m 7748.55,108.871 h 132.28 v 39.899 h -132.28 v 62.46 h 143.12 v 39.899 H 7696.93 V 3.46875 h 201.69 V 43.3711 h -150.07 v 65.4999" /></g></g></svg>